<?xml version="1.0" standalone="no"?>
<!DOCTYPE svg PUBLIC "-//W3C//DTD SVG 20010904//EN"
 "http://www.w3.org/TR/2001/REC-SVG-20010904/DTD/svg10.dtd">
<svg version="1.0" xmlns="http://www.w3.org/2000/svg"
 width="1280.000000pt" height="1229.000000pt" viewBox="0 0 1280.000000 1229.000000"
 preserveAspectRatio="xMidYMid meet">
<g transform="translate(0.000000,1229.000000) scale(0.100000,-0.100000)"
fill="#FFFFFF" stroke="none">
<path d="M7505 12270 c-433 -41 -693 -95 -1045 -215 -897 -308 -1706 -965
-2222 -1805 -393 -640 -629 -1354 -703 -2125 -28 -300 -17 -780 25 -1075 133
-923 553 -1750 1190 -2345 671 -627 1578 -922 2420 -789 452 71 877 264 1229
557 115 96 314 308 409 434 271 364 428 748 503 1233 31 196 34 612 6 790
-130 822 -615 1429 -1287 1608 -81 21 -117 25 -245 25 -176 1 -260 -16 -445
-90 -368 -147 -571 -301 -711 -539 -107 -183 -149 -345 -149 -576 0 -356 110
-658 315 -863 99 -99 163 -141 275 -181 101 -36 266 -45 373 -20 96 23 219 85
291 147 32 27 63 46 67 42 11 -11 -25 -237 -52 -328 -38 -127 -93 -210 -219
-329 -134 -126 -273 -200 -468 -248 -119 -30 -403 -32 -532 -4 -557 120 -989
463 -1258 1001 -129 257 -202 511 -238 823 -22 187 -15 551 15 742 96 623 380
1209 789 1632 756 781 1867 1034 2942 670 801 -271 1468 -835 1921 -1624 589
-1027 744 -2309 433 -3568 -137 -553 -370 -1092 -672 -1555 -625 -959 -1557
-1630 -2632 -1894 -590 -145 -1253 -163 -1865 -50 -1348 249 -2564 1070 -3359
2268 -398 599 -689 1263 -876 1996 -162 636 -229 1218 -217 1895 11 578 66
1008 205 1585 12 50 16 113 16 225 0 139 -3 164 -27 243 -137 446 -543 681
-938 543 -98 -34 -170 -79 -256 -160 -135 -127 -198 -247 -257 -486 -116 -477
-194 -997 -226 -1500 -6 -96 -15 -239 -20 -316 -13 -183 -13 -393 0 -563 6
-75 17 -235 25 -356 116 -1711 738 -3353 1746 -4612 320 -400 744 -822 1129
-1124 375 -295 729 -518 1160 -733 744 -370 1488 -573 2335 -636 357 -27 432
-26 895 16 920 83 1823 402 2608 921 1059 701 1865 1704 2367 2943 268 664
435 1371 489 2080 9 113 21 259 26 325 13 153 13 336 0 495 -5 69 -17 211 -25
315 -141 1726 -957 3280 -2220 4227 -629 471 -1384 787 -2135 894 -160 22
-534 54 -630 53 -47 -1 -170 -9 -275 -19z"/>
</g>
</svg>

